<?xml version="1.0" encoding="UTF-8"?>
<svg id="Layer_1" xmlns="http://www.w3.org/2000/svg" version="1.1" viewBox="0 0 1920 600">
  <!-- Generator: Adobe Illustrator 29.5.1, SVG Export Plug-In . SVG Version: 2.1.0 Build 141)  -->
  <defs>
    <style>
      .st0 {
        fill: #008fe0;
      }

      .st1 {
        fill: #1cdb96;
      }

      .st2 {
        fill: #04034f;
      }
    </style>
  </defs>
  <g>
    <polygon class="st1" points="490.72 29.93 489.76 457.8 309.41 457.8 309.41 142.18 241.31 142.18 315.82 29.93 490.72 29.93"/>
    <polygon class="st0" points="309.42 457.81 234.9 570.07 60 570.07 60.73 241.05 60.96 142.17 241.32 142.17 175.7 241.05 241.32 241.05 241.32 457.81 309.42 457.81"/>
  </g>
  <g>
    <path class="st2" d="M819.3,214.06c-8.82-8.82-19.26-15.7-31.31-20.63-12.05-4.93-25.18-7.4-39.41-7.4s-27.14,2.52-39.28,7.54c-12.14,5.03-22.62,11.91-31.45,20.63-8.82,8.73-15.75,19.07-20.77,31.02-5.03,11.95-7.54,24.95-7.54,38.99s2.51,27.04,7.54,38.99c5.02,11.95,11.96,22.34,20.77,31.16,8.82,8.82,19.31,15.7,31.45,20.63,12.14,4.93,25.23,7.4,39.28,7.4s27.36-2.47,39.41-7.4c12.05-4.93,22.48-11.81,31.31-20.63,8.82-8.82,15.74-19.21,20.77-31.16,5.03-11.95,7.55-24.95,7.55-38.99s-2.52-27.04-7.55-38.99c-5.03-11.95-11.95-22.34-20.77-31.16ZM797.53,305.69c-2.66,6.73-6.36,12.52-11.1,17.36-4.75,4.84-10.35,8.64-16.8,11.39-6.45,2.75-13.46,4.13-21.05,4.13s-14.62-1.38-21.07-4.13c-6.45-2.75-12.05-6.54-16.79-11.39-4.75-4.84-8.45-10.62-11.1-17.36-2.65-6.73-3.98-13.99-3.98-21.77s1.33-14.94,3.98-21.49c2.65-6.54,6.36-12.24,11.1-17.07,4.74-4.84,10.34-8.63,16.79-11.38,6.45-2.75,13.47-4.13,21.07-4.13s14.6,1.38,21.05,4.13c6.45,2.75,12.05,6.54,16.8,11.38,4.74,4.84,8.43,10.53,11.1,17.07,2.65,6.54,3.98,13.71,3.98,21.49s-1.33,15.04-3.98,21.77Z"/>
    <path class="st2" d="M1003.08,242.66c-4.66-5.12-10.25-9.11-16.79-11.95-6.54-2.85-13.81-4.27-21.77-4.27-8.73,0-17.17,1.99-25.33,5.98-8.16,3.98-15.27,9.58-21.34,16.79v-19.92h-42.69v150.26h42.69v-78.54c.19-5.12,1.14-9.86,2.85-14.23,1.71-4.36,3.99-8.15,6.83-11.38,2.84-3.22,6.16-5.74,9.96-7.54,3.79-1.8,7.88-2.7,12.24-2.7,7.77,0,13.99,2.56,18.63,7.68,4.66,5.12,6.98,11.86,6.98,20.2v86.51h42.69v-95.62c0-8.35-1.33-16.03-3.99-23.05-2.65-7.01-6.31-13.09-10.95-18.21Z"/>
    <path class="st2" d="M1194.69,291.89c-.76-9.68-3.23-18.54-7.4-26.61-4.18-8.06-9.64-14.94-16.36-20.63-6.74-5.69-14.62-10.15-23.62-13.37-9.02-3.22-18.74-4.84-29.17-4.84-11.39,0-21.82,1.95-31.31,5.83-9.49,3.89-17.65,9.25-24.47,16.08-6.84,6.83-12.14,15.04-15.94,24.62-3.8,9.58-5.7,20.06-5.7,31.45s1.95,21.86,5.84,31.45c3.89,9.58,9.3,17.79,16.22,24.62,6.93,6.83,15.26,12.14,25.05,15.93,9.77,3.79,20.44,5.7,32.02,5.7,18.4,0,33.95-4.46,46.66-13.37,12.71-8.92,21.25-21.82,25.62-38.71h-42.4c-1.9,5.12-5.36,9.11-10.39,11.95-5.03,2.85-10.96,4.27-17.79,4.27-9.68,0-17.7-2.7-24.05-8.11-6.36-5.41-10.39-12.85-12.1-22.34h109.85c.18-2.47.28-5.02.28-7.68,0-1.33-.04-3.27-.14-5.84-.1-2.56-.33-6.02-.71-10.38ZM1085.98,290.47c2.08-8.54,6.07-15.23,11.96-20.06,5.88-4.84,12.99-7.26,21.34-7.26,9.1,0,16.65,2.42,22.62,7.26,5.98,4.84,9.44,11.52,10.38,20.06h-66.3Z"/>
    <path class="st2" d="M1360.46,248.07c-6.16-6.83-13.61-12.1-22.34-15.8-8.73-3.7-18.41-5.55-29.03-5.55-9.87,0-18.79,1.99-26.75,5.98-7.98,3.98-14.71,9.68-20.2,17.07v-75.13h-42.69v204.9h42.69v-20.2c4.36,7.02,10.71,12.57,19.06,16.65,8.34,4.08,17.64,6.12,27.89,6.12s19.73-1.95,28.46-5.84c8.73-3.88,16.22-9.25,22.48-16.08,6.25-6.83,11.14-14.99,14.65-24.48,3.51-9.48,5.26-19.92,5.26-31.3s-1.7-22.15-5.11-31.73c-3.42-9.58-8.21-17.79-14.37-24.62ZM1333.28,319.64c-1.9,4.65-4.46,8.64-7.68,11.95-3.24,3.32-7.11,5.93-11.67,7.83-4.56,1.9-9.49,2.84-14.8,2.84s-10.24-.94-14.8-2.84c-4.55-1.9-8.49-4.51-11.81-7.83-3.32-3.31-5.88-7.25-7.68-11.81-1.81-4.55-2.7-9.57-2.7-15.08,0-11.2,3.41-20.3,10.24-27.32,6.83-7.02,15.74-10.53,26.75-10.53,5.5,0,10.48.95,14.94,2.85,4.46,1.9,8.35,4.51,11.67,7.83,3.32,3.32,5.88,7.31,7.68,11.95,1.8,4.65,2.7,9.73,2.7,15.23s-.95,10.29-2.84,14.94Z"/>
    <polygon class="st2" points="1493.58 229.28 1460 320.63 1427.56 229.28 1382.59 229.28 1439.79 377.83 1418.73 435.03 1459.43 435.03 1538.26 229.28 1493.58 229.28"/>
    <path class="st2" d="M1558.66,337.42c-6.45,0-11.86,2.18-16.22,6.54-4.36,4.36-6.54,9.58-6.54,15.65,0,6.45,2.18,11.86,6.54,16.22,4.36,4.36,9.77,6.54,16.22,6.54,6.07,0,11.29-2.19,15.65-6.54,4.36-4.36,6.54-9.78,6.54-16.22,0-6.07-2.18-11.29-6.54-15.65-4.36-4.36-9.59-6.54-15.65-6.54Z"/>
    <path class="st2" d="M1673.49,188.87l-70.01,190.67h44.67l12.81-35.29h78.83l12.8,35.29h44.69l-70.01-190.67h-53.79ZM1672.63,310.39l27.89-76.55,27.6,76.55h-55.49Z"/>
    <rect class="st2" x="1814.47" y="229.28" width="42.4" height="150.26"/>
    <path class="st2" d="M1835.81,211.92c6.82,0,12.56-2.28,17.22-6.83,4.64-4.55,6.97-10.15,6.97-16.79s-2.33-11.95-6.97-16.51c-4.66-4.55-10.39-6.83-17.22-6.83s-12.86,2.28-17.51,6.83c-4.65,4.55-6.98,10.06-6.98,16.51s2.33,12.24,6.98,16.79c4.65,4.55,10.48,6.83,17.51,6.83Z"/>
  </g>
</svg>